<svg id="Layer_1" data-name="Layer 1" xmlns="http://www.w3.org/2000/svg" viewBox="0 0 773.72 941.01"><defs><style>.cls-1{fill:none;stroke:#5C4A39;stroke-miterlimit:10;stroke-width:16px;}</style></defs><title>CommunityCoffees_svg</title><path class="cls-1" d="M139.84,364.67" transform="translate(-129.07 -24.61)"/><path class="cls-1" d="M872,518c-27.82-23.29-74.94-16.55-122.69,12.8-.94,22.39-2.19,44.66-3.8,66.61,25.85-20.33,51.48-28,64.6-17,18,15.09,5.57,59.67-27.83,99.55-16.44,19.64-34.89,34.47-51.53,42.68-5.62,32.28-12.68,62.58-21.55,90,39.11-11.9,83.22-42.41,120.37-86.77C895.69,646.84,914.69,553.77,872,518Z" transform="translate(-129.07 -24.61)"/><ellipse class="cls-1" cx="314.44" cy="337.34" rx="306.43" ry="41.85"/><path class="cls-1" d="M137.07,362c.08,190.86,6.69,413.7,77.85,522.68,52,79.69,157.37,72.84,228.59,72.84,70.79,0,175.88,6.87,227.76-72C743,776.59,749.86,553.64,749.94,362" transform="translate(-129.07 -24.61)"/><path class="cls-1" d="M479.22,24.61c0,54.5-60,54.5-60,109s60,54.5,60,109-60,54.5-60,109" transform="translate(-129.07 -24.61)"/><path class="cls-1" d="M338.51,116.28c0,39.22-60,39.22-60,78.44s60,39.22,60,78.44-60,39.22-60,78.44" transform="translate(-129.07 -24.61)"/><path class="cls-1" d="M608.5,116.28c0,39.22-60,39.22-60,78.44s60,39.22,60,78.44-60,39.22-60,78.44" transform="translate(-129.07 -24.61)"/></svg>
